<?xml version="1.0" encoding="UTF-8" standalone="no"?>
<!DOCTYPE svg PUBLIC "-//W3C//DTD SVG 1.1//EN"
 "http://www.w3.org/Graphics/SVG/1.1/DTD/svg11.dtd">
<!-- Generated by graphviz version 13.1.0 (20250701.0955)
 -->
<!-- Title: JohnDaltonConnections Pages: 1 -->
<svg width="3518pt" height="320pt"
 viewBox="0.00 0.00 3518.00 320.00" xmlns="http://www.w3.org/2000/svg" xmlns:xlink="http://www.w3.org/1999/xlink">
<g id="graph0" class="graph" transform="scale(1 1) rotate(0) translate(4 316.25)">
<title>JohnDaltonConnections</title>
<polygon fill="white" stroke="none" points="-4,4 -4,-316.25 3514.38,-316.25 3514.38,4 -4,4"/>
<g id="clust1" class="cluster">
<title>cluster_legend</title>
<polygon fill="white" stroke="black" points="1212.88,-208 1212.88,-304.25 2478.88,-304.25 2478.88,-208 1212.88,-208"/>
<text xml:space="preserve" text-anchor="middle" x="1845.88" y="-288.85" font-family="Times,serif" font-size="12.00">LEGEND &#45; Color Coding &amp; Quaker Connections</text>
</g>
<!-- John Dalton\n(1766&#45;1844)\nQUAKER Chemist &amp; Physicist -->
<g id="node1" class="node">
<title>John Dalton\n(1766&#45;1844)\nQUAKER Chemist &amp; Physicist</title>
<polygon fill="gold" stroke="black" stroke-width="3" points="1035.62,-171.75 874.12,-171.75 874.12,-123.25 1035.62,-123.25 1035.62,-171.75"/>
<text xml:space="preserve" text-anchor="middle" x="954.88" y="-157.3" font-family="Arial" font-size="11.00">John Dalton</text>
<text xml:space="preserve" text-anchor="middle" x="954.88" y="-143.8" font-family="Arial" font-size="11.00">(1766&#45;1844)</text>
<text xml:space="preserve" text-anchor="middle" x="954.88" y="-130.3" font-family="Arial" font-size="11.00">QUAKER Chemist &amp; Physicist</text>
</g>
<!-- Mary Dalton\n(1760&#45;1830)\nQUAKER Sister -->
<g id="node4" class="node">
<title>Mary Dalton\n(1760&#45;1830)\nQUAKER Sister</title>
<polygon fill="lightpink" stroke="black" stroke-width="2" points="79.75,-59.25 0,-59.25 0,-19.75 79.75,-19.75 79.75,-59.25"/>
<text xml:space="preserve" text-anchor="middle" x="39.88" y="-46.7" font-family="Arial" font-size="9.00">Mary Dalton</text>
<text xml:space="preserve" text-anchor="middle" x="39.88" y="-36.2" font-family="Arial" font-size="9.00">(1760&#45;1830)</text>
<text xml:space="preserve" text-anchor="middle" x="39.88" y="-25.7" font-family="Arial" font-size="9.00">QUAKER Sister</text>
</g>
<!-- John Dalton\n(1766&#45;1844)\nQUAKER Chemist &amp; Physicist&#45;&gt;Mary Dalton\n(1760&#45;1830)\nQUAKER Sister -->
<g id="edge3" class="edge">
<title>John Dalton\n(1766&#45;1844)\nQUAKER Chemist &amp; Physicist&#45;&gt;Mary Dalton\n(1760&#45;1830)\nQUAKER Sister</title>
<path fill="none" stroke="black" d="M872.83,-146.63C734.01,-145.83 444.27,-139.68 202.12,-105.25 150.97,-97.98 135.47,-101.33 88.88,-79 82.06,-75.73 75.31,-71.38 69.11,-66.78"/>
<polygon fill="black" stroke="black" points="71.66,-64.34 61.64,-60.9 67.33,-69.84 71.66,-64.34"/>
<text xml:space="preserve" text-anchor="middle" x="213" y="-98.6" font-family="Arial" font-size="7.00">brother</text>
</g>
<!-- Jonathan Dalton\n(1764&#45;1844)\nQUAKER Brother -->
<g id="node5" class="node">
<title>Jonathan Dalton\n(1764&#45;1844)\nQUAKER Brother</title>
<polygon fill="lightpink" stroke="black" stroke-width="2" points="184.12,-59.25 97.62,-59.25 97.62,-19.75 184.12,-19.75 184.12,-59.25"/>
<text xml:space="preserve" text-anchor="middle" x="140.88" y="-46.7" font-family="Arial" font-size="9.00">Jonathan Dalton</text>
<text xml:space="preserve" text-anchor="middle" x="140.88" y="-36.2" font-family="Arial" font-size="9.00">(1764&#45;1844)</text>
<text xml:space="preserve" text-anchor="middle" x="140.88" y="-25.7" font-family="Arial" font-size="9.00">QUAKER Brother</text>
</g>
<!-- John Dalton\n(1766&#45;1844)\nQUAKER Chemist &amp; Physicist&#45;&gt;Jonathan Dalton\n(1764&#45;1844)\nQUAKER Brother -->
<g id="edge4" class="edge">
<title>John Dalton\n(1766&#45;1844)\nQUAKER Chemist &amp; Physicist&#45;&gt;Jonathan Dalton\n(1764&#45;1844)\nQUAKER Brother</title>
<path fill="none" stroke="black" d="M872.78,-145.15C713.99,-141.96 370.31,-132.1 255.12,-105.25 225.88,-98.43 218.96,-93.87 192.88,-79 186.6,-75.42 180.19,-71.21 174.12,-66.91"/>
<polygon fill="black" stroke="black" points="176.27,-64.15 166.14,-61.06 172.13,-69.79 176.27,-64.15"/>
<text xml:space="preserve" text-anchor="middle" x="266" y="-98.6" font-family="Arial" font-size="7.00">brother</text>
</g>
<!-- William Henry\n(1774&#45;1836)\nQUAKER Chemist -->
<g id="node9" class="node">
<title>William Henry\n(1774&#45;1836)\nQUAKER Chemist</title>
<polygon fill="lightsteelblue" stroke="black" stroke-width="2" points="292,-59.25 201.75,-59.25 201.75,-19.75 292,-19.75 292,-59.25"/>
<text xml:space="preserve" text-anchor="middle" x="246.88" y="-46.7" font-family="Arial" font-size="9.00">William Henry</text>
<text xml:space="preserve" text-anchor="middle" x="246.88" y="-36.2" font-family="Arial" font-size="9.00">(1774&#45;1836)</text>
<text xml:space="preserve" text-anchor="middle" x="246.88" y="-25.7" font-family="Arial" font-size="9.00">QUAKER Chemist</text>
</g>
<!-- John Dalton\n(1766&#45;1844)\nQUAKER Chemist &amp; Physicist&#45;&gt;William Henry\n(1774&#45;1836)\nQUAKER Chemist -->
<g id="edge11" class="edge">
<title>John Dalton\n(1766&#45;1844)\nQUAKER Chemist &amp; Physicist&#45;&gt;William Henry\n(1774&#45;1836)\nQUAKER Chemist</title>
<path fill="none" stroke="black" d="M872.92,-145.41C706.51,-142.61 340.53,-133.32 291.12,-105.25 277.3,-97.4 266.88,-83.23 259.64,-70.15"/>
<polygon fill="black" stroke="black" points="262.83,-68.72 255.19,-61.38 256.59,-71.88 262.83,-68.72"/>
<text xml:space="preserve" text-anchor="middle" x="302" y="-98.6" font-family="Arial" font-size="7.00">mentor</text>
</g>
<!-- John Dalton\n(1766&#45;1844)\nQUAKER Chemist &amp; Physicist&#45;&gt;William Henry\n(1774&#45;1836)\nQUAKER Chemist -->
<g id="edge15" class="edge">
<title>John Dalton\n(1766&#45;1844)\nQUAKER Chemist &amp; Physicist&#45;&gt;William Henry\n(1774&#45;1836)\nQUAKER Chemist</title>
<path fill="none" stroke="black" d="M872.65,-143.4C735.85,-137.78 467.36,-124.67 374.62,-105.25 340.57,-98.12 331.72,-95.09 300.88,-79 294.08,-75.46 287.18,-71.16 280.67,-66.73"/>
<polygon fill="black" stroke="black" points="282.91,-64.03 272.72,-61.11 278.86,-69.74 282.91,-64.03"/>
<text xml:space="preserve" text-anchor="middle" x="383.25" y="-98.6" font-family="Arial" font-size="7.00">friend</text>
</g>
<!-- Thomas Thomson\n(1773&#45;1852)\nQUAKER Chemist -->
<g id="node10" class="node">
<title>Thomas Thomson\n(1773&#45;1852)\nQUAKER Chemist</title>
<polygon fill="lightsteelblue" stroke="black" stroke-width="2" points="400,-59.25 309.75,-59.25 309.75,-19.75 400,-19.75 400,-59.25"/>
<text xml:space="preserve" text-anchor="middle" x="354.88" y="-46.7" font-family="Arial" font-size="9.00">Thomas Thomson</text>
<text xml:space="preserve" text-anchor="middle" x="354.88" y="-36.2" font-family="Arial" font-size="9.00">(1773&#45;1852)</text>
<text xml:space="preserve" text-anchor="middle" x="354.88" y="-25.7" font-family="Arial" font-size="9.00">QUAKER Chemist</text>
</g>
<!-- John Dalton\n(1766&#45;1844)\nQUAKER Chemist &amp; Physicist&#45;&gt;Thomas Thomson\n(1773&#45;1852)\nQUAKER Chemist -->
<g id="edge12" class="edge">
<title>John Dalton\n(1766&#45;1844)\nQUAKER Chemist &amp; Physicist&#45;&gt;Thomas Thomson\n(1773&#45;1852)\nQUAKER Chemist</title>
<path fill="none" stroke="black" d="M872.7,-143.9C729.9,-138.85 447.26,-126.32 407.12,-105.25 392.04,-97.33 379.77,-82.97 370.91,-69.77"/>
<polygon fill="black" stroke="black" points="373.9,-67.94 365.62,-61.33 367.96,-71.66 373.9,-67.94"/>
<text xml:space="preserve" text-anchor="middle" x="418" y="-98.6" font-family="Arial" font-size="7.00">mentor</text>
</g>
<!-- John Dalton\n(1766&#45;1844)\nQUAKER Chemist &amp; Physicist&#45;&gt;Thomas Thomson\n(1773&#45;1852)\nQUAKER Chemist -->
<g id="edge16" class="edge">
<title>John Dalton\n(1766&#45;1844)\nQUAKER Chemist &amp; Physicist&#45;&gt;Thomas Thomson\n(1773&#45;1852)\nQUAKER Chemist</title>
<path fill="none" stroke="black" d="M873.05,-147.36C775.73,-146.59 609.01,-139.63 470.62,-105.25 441.68,-98.06 434.89,-93.58 408.88,-79 402.26,-75.29 395.48,-70.95 389.05,-66.54"/>
<polygon fill="black" stroke="black" points="391.36,-63.89 381.18,-60.97 387.32,-69.6 391.36,-63.89"/>
<text xml:space="preserve" text-anchor="middle" x="479.25" y="-98.6" font-family="Arial" font-size="7.00">friend</text>
</g>
<!-- James Prescott Joule\n(1818&#45;1889)\nQUAKER Physicist -->
<g id="node11" class="node">
<title>James Prescott Joule\n(1818&#45;1889)\nQUAKER Physicist</title>
<polygon fill="lightsteelblue" stroke="black" stroke-width="2" points="521.38,-59.25 418.38,-59.25 418.38,-19.75 521.38,-19.75 521.38,-59.25"/>
<text xml:space="preserve" text-anchor="middle" x="469.88" y="-46.7" font-family="Arial" font-size="9.00">James Prescott Joule</text>
<text xml:space="preserve" text-anchor="middle" x="469.88" y="-36.2" font-family="Arial" font-size="9.00">(1818&#45;1889)</text>
<text xml:space="preserve" text-anchor="middle" x="469.88" y="-25.7" font-family="Arial" font-size="9.00">QUAKER Physicist</text>
</g>
<!-- John Dalton\n(1766&#45;1844)\nQUAKER Chemist &amp; Physicist&#45;&gt;James Prescott Joule\n(1818&#45;1889)\nQUAKER Physicist -->
<g id="edge10" class="edge">
<title>John Dalton\n(1766&#45;1844)\nQUAKER Chemist &amp; Physicist&#45;&gt;James Prescott Joule\n(1818&#45;1889)\nQUAKER Physicist</title>
<path fill="none" stroke="black" d="M872.77,-143.46C750.03,-138.25 529.85,-126.12 500.12,-105.25 488.58,-97.14 481.32,-83.47 476.82,-70.77"/>
<polygon fill="black" stroke="black" points="480.25,-70.01 473.98,-61.47 473.56,-72.05 480.25,-70.01"/>
<text xml:space="preserve" text-anchor="middle" x="511" y="-98.6" font-family="Arial" font-size="7.00">mentor</text>
</g>
<!-- John Dalton\n(1766&#45;1844)\nQUAKER Chemist &amp; Physicist&#45;&gt;James Prescott Joule\n(1818&#45;1889)\nQUAKER Physicist -->
<g id="edge17" class="edge">
<title>John Dalton\n(1766&#45;1844)\nQUAKER Chemist &amp; Physicist&#45;&gt;James Prescott Joule\n(1818&#45;1889)\nQUAKER Physicist</title>
<path fill="none" stroke="black" d="M872.95,-144.15C785.23,-139.23 643.34,-124.24 529.88,-79 521.47,-75.65 512.97,-71.07 505.11,-66.24"/>
<polygon fill="black" stroke="black" points="507.14,-63.38 496.84,-60.88 503.33,-69.25 507.14,-63.38"/>
<text xml:space="preserve" text-anchor="middle" x="616.34" y="-98.6" font-family="Arial" font-size="7.00">friend</text>
</g>
<!-- William Allen\n(1770&#45;1843)\nQUAKER Scientist -->
<g id="node12" class="node">
<title>William Allen\n(1770&#45;1843)\nQUAKER Scientist</title>
<polygon fill="lightsteelblue" stroke="black" stroke-width="2" points="630.38,-59.25 539.38,-59.25 539.38,-19.75 630.38,-19.75 630.38,-59.25"/>
<text xml:space="preserve" text-anchor="middle" x="584.88" y="-46.7" font-family="Arial" font-size="9.00">William Allen</text>
<text xml:space="preserve" text-anchor="middle" x="584.88" y="-36.2" font-family="Arial" font-size="9.00">(1770&#45;1843)</text>
<text xml:space="preserve" text-anchor="middle" x="584.88" y="-25.7" font-family="Arial" font-size="9.00">QUAKER Scientist</text>
</g>
<!-- John Dalton\n(1766&#45;1844)\nQUAKER Chemist &amp; Physicist&#45;&gt;William Allen\n(1770&#45;1843)\nQUAKER Scientist -->
<g id="edge13" class="edge">
<title>John Dalton\n(1766&#45;1844)\nQUAKER Chemist &amp; Physicist&#45;&gt;William Allen\n(1770&#45;1843)\nQUAKER Scientist</title>
<path fill="none" stroke="black" d="M872.85,-138.03C807.61,-129.16 715.12,-111.78 639.88,-79 632.31,-75.7 624.72,-71.28 617.7,-66.62"/>
<polygon fill="black" stroke="black" points="619.97,-63.93 609.77,-61.05 615.95,-69.66 619.97,-63.93"/>
<text xml:space="preserve" text-anchor="middle" x="714.57" y="-98.6" font-family="Arial" font-size="7.00">friend</text>
</g>
<!-- Luke Howard\n(1772&#45;1864)\nQUAKER Meteorologist -->
<g id="node13" class="node">
<title>Luke Howard\n(1772&#45;1864)\nQUAKER Meteorologist</title>
<polygon fill="lightsteelblue" stroke="black" stroke-width="2" points="760.88,-59.25 648.88,-59.25 648.88,-19.75 760.88,-19.75 760.88,-59.25"/>
<text xml:space="preserve" text-anchor="middle" x="704.88" y="-46.7" font-family="Arial" font-size="9.00">Luke Howard</text>
<text xml:space="preserve" text-anchor="middle" x="704.88" y="-36.2" font-family="Arial" font-size="9.00">(1772&#45;1864)</text>
<text xml:space="preserve" text-anchor="middle" x="704.88" y="-25.7" font-family="Arial" font-size="9.00">QUAKER Meteorologist</text>
</g>
<!-- John Dalton\n(1766&#45;1844)\nQUAKER Chemist &amp; Physicist&#45;&gt;Luke Howard\n(1772&#45;1864)\nQUAKER Meteorologist -->
<g id="edge14" class="edge">
<title>John Dalton\n(1766&#45;1844)\nQUAKER Chemist &amp; Physicist&#45;&gt;Luke Howard\n(1772&#45;1864)\nQUAKER Meteorologist</title>
<path fill="none" stroke="black" d="M872.81,-127.47C851.8,-121.45 829.53,-114.03 809.62,-105.25 785.69,-94.7 760.71,-79.45 741.15,-66.4"/>
<polygon fill="black" stroke="black" points="743.23,-63.57 732.99,-60.85 739.29,-69.36 743.23,-63.57"/>
<text xml:space="preserve" text-anchor="middle" x="818.25" y="-98.6" font-family="Arial" font-size="7.00">friend</text>
</g>
<!-- Joseph Priestley\n(1733&#45;1804)\nDissenter Chemist -->
<g id="node14" class="node">
<title>Joseph Priestley\n(1733&#45;1804)\nDissenter Chemist</title>
<polygon fill="lightcoral" stroke="black" points="870.38,-59.25 779.38,-59.25 779.38,-19.75 870.38,-19.75 870.38,-59.25"/>
<text xml:space="preserve" text-anchor="middle" x="824.88" y="-46.7" font-family="Arial" font-size="9.00">Joseph Priestley</text>
<text xml:space="preserve" text-anchor="middle" x="824.88" y="-36.2" font-family="Arial" font-size="9.00">(1733&#45;1804)</text>
<text xml:space="preserve" text-anchor="middle" x="824.88" y="-25.7" font-family="Arial" font-size="9.00">Dissenter Chemist</text>
</g>
<!-- John Dalton\n(1766&#45;1844)\nQUAKER Chemist &amp; Physicist&#45;&gt;Joseph Priestley\n(1733&#45;1804)\nDissenter Chemist -->
<g id="edge18" class="edge">
<title>John Dalton\n(1766&#45;1844)\nQUAKER Chemist &amp; Physicist&#45;&gt;Joseph Priestley\n(1733&#45;1804)\nDissenter Chemist</title>
<path fill="none" stroke="black" d="M872.76,-131.05C858.77,-125.07 845.63,-116.76 835.88,-105.25 827.92,-95.85 824.72,-82.86 823.67,-70.98"/>
<polygon fill="black" stroke="black" points="827.18,-71.02 823.31,-61.15 820.18,-71.28 827.18,-71.02"/>
<text xml:space="preserve" text-anchor="middle" x="853.88" y="-98.6" font-family="Arial" font-size="7.00">collaborator</text>
</g>
<!-- Humphry Davy\n(1778&#45;1829)\nAnglican Chemist -->
<g id="node15" class="node">
<title>Humphry Davy\n(1778&#45;1829)\nAnglican Chemist</title>
<polygon fill="lightcoral" stroke="black" points="976.88,-59.25 888.88,-59.25 888.88,-19.75 976.88,-19.75 976.88,-59.25"/>
<text xml:space="preserve" text-anchor="middle" x="932.88" y="-46.7" font-family="Arial" font-size="9.00">Humphry Davy</text>
<text xml:space="preserve" text-anchor="middle" x="932.88" y="-36.2" font-family="Arial" font-size="9.00">(1778&#45;1829)</text>
<text xml:space="preserve" text-anchor="middle" x="932.88" y="-25.7" font-family="Arial" font-size="9.00">Anglican Chemist</text>
</g>
<!-- John Dalton\n(1766&#45;1844)\nQUAKER Chemist &amp; Physicist&#45;&gt;Humphry Davy\n(1778&#45;1829)\nAnglican Chemist -->
<g id="edge19" class="edge">
<title>John Dalton\n(1766&#45;1844)\nQUAKER Chemist &amp; Physicist&#45;&gt;Humphry Davy\n(1778&#45;1829)\nAnglican Chemist</title>
<path fill="none" stroke="black" d="M931.68,-121.87C928.07,-116.72 924.87,-111.08 922.88,-105.25 919.1,-94.23 919.95,-81.66 922.32,-70.55"/>
<polygon fill="black" stroke="black" points="925.65,-71.65 924.83,-61.09 918.88,-69.86 925.65,-71.65"/>
<text xml:space="preserve" text-anchor="middle" x="940.88" y="-98.6" font-family="Arial" font-size="7.00">collaborator</text>
</g>
<!-- Michael Faraday\n(1791&#45;1867)\nAnglican Physicist -->
<g id="node16" class="node">
<title>Michael Faraday\n(1791&#45;1867)\nAnglican Physicist</title>
<polygon fill="lightcoral" stroke="black" points="1085,-59.25 994.75,-59.25 994.75,-19.75 1085,-19.75 1085,-59.25"/>
<text xml:space="preserve" text-anchor="middle" x="1039.88" y="-46.7" font-family="Arial" font-size="9.00">Michael Faraday</text>
<text xml:space="preserve" text-anchor="middle" x="1039.88" y="-36.2" font-family="Arial" font-size="9.00">(1791&#45;1867)</text>
<text xml:space="preserve" text-anchor="middle" x="1039.88" y="-25.7" font-family="Arial" font-size="9.00">Anglican Physicist</text>
</g>
<!-- John Dalton\n(1766&#45;1844)\nQUAKER Chemist &amp; Physicist&#45;&gt;Michael Faraday\n(1791&#45;1867)\nAnglican Physicist -->
<g id="edge20" class="edge">
<title>John Dalton\n(1766&#45;1844)\nQUAKER Chemist &amp; Physicist&#45;&gt;Michael Faraday\n(1791&#45;1867)\nAnglican Physicist</title>
<path fill="none" stroke="black" d="M984.13,-121.87C989.64,-116.64 995.15,-110.97 999.88,-105.25 1008.99,-94.23 1017.56,-80.94 1024.4,-69.28"/>
<polygon fill="black" stroke="black" points="1027.28,-71.29 1029.19,-60.87 1021.2,-67.83 1027.28,-71.29"/>
<text xml:space="preserve" text-anchor="middle" x="1021.98" y="-98.6" font-family="Arial" font-size="7.00">influenced</text>
</g>
<!-- Manchester Literary\nand Philosophical Society\nQUAKER Scientific Group -->
<g id="node17" class="node">
<title>Manchester Literary\nand Philosophical Society\nQUAKER Scientific Group</title>
<polygon fill="lightgray" stroke="black" stroke-width="2" points="1224.88,-79 1103.12,-39.5 1224.88,0 1346.62,-39.5 1224.88,-79"/>
<text xml:space="preserve" text-anchor="middle" x="1224.88" y="-46.7" font-family="Arial" font-size="9.00">Manchester Literary</text>
<text xml:space="preserve" text-anchor="middle" x="1224.88" y="-36.2" font-family="Arial" font-size="9.00">and Philosophical Society</text>
<text xml:space="preserve" text-anchor="middle" x="1224.88" y="-25.7" font-family="Arial" font-size="9.00">QUAKER Scientific Group</text>
</g>
<!-- John Dalton\n(1766&#45;1844)\nQUAKER Chemist &amp; Physicist&#45;&gt;Manchester Literary\nand Philosophical Society\nQUAKER Scientific Group -->
<g id="edge21" class="edge">
<title>John Dalton\n(1766&#45;1844)\nQUAKER Chemist &amp; Physicist&#45;&gt;Manchester Literary\nand Philosophical Society\nQUAKER Scientific Group</title>
<path fill="none" stroke="black" d="M1017.84,-121.78C1060.36,-105.09 1116.36,-83.1 1159.4,-66.2"/>
<polygon fill="black" stroke="black" points="1160.61,-69.49 1168.64,-62.58 1158.05,-62.97 1160.61,-69.49"/>
<text xml:space="preserve" text-anchor="middle" x="1086.46" y="-98.6" font-family="Arial" font-size="7.00">member</text>
</g>
<!-- Royal Society\nAnglican Scientific -->
<g id="node18" class="node">
<title>Royal Society\nAnglican Scientific</title>
<polygon fill="lightgray" stroke="black" points="1455.88,-68.5 1364.88,-39.5 1455.88,-10.5 1546.88,-39.5 1455.88,-68.5"/>
<text xml:space="preserve" text-anchor="middle" x="1455.88" y="-41.45" font-family="Arial" font-size="9.00">Royal Society</text>
<text xml:space="preserve" text-anchor="middle" x="1455.88" y="-30.95" font-family="Arial" font-size="9.00">Anglican Scientific</text>
</g>
<!-- John Dalton\n(1766&#45;1844)\nQUAKER Chemist &amp; Physicist&#45;&gt;Royal Society\nAnglican Scientific -->
<g id="edge22" class="edge">
<title>John Dalton\n(1766&#45;1844)\nQUAKER Chemist &amp; Physicist&#45;&gt;Royal Society\nAnglican Scientific</title>
<path fill="none" stroke="black" d="M1036.94,-137.58C1118.73,-127.55 1247.44,-108.68 1355.88,-79 1373.24,-74.25 1391.77,-67.58 1408.11,-61.13"/>
<polygon fill="black" stroke="black" points="1409.12,-64.5 1417.08,-57.52 1406.5,-58.01 1409.12,-64.5"/>
<text xml:space="preserve" text-anchor="middle" x="1289.35" y="-98.6" font-family="Arial" font-size="7.00">fellow</text>
</g>
<!-- New College Manchester\nQUAKER Academy -->
<g id="node19" class="node">
<title>New College Manchester\nQUAKER Academy</title>
<polygon fill="lightgray" stroke="black" stroke-width="2" points="1684.88,-68.5 1565.38,-39.5 1684.88,-10.5 1804.38,-39.5 1684.88,-68.5"/>
<text xml:space="preserve" text-anchor="middle" x="1684.88" y="-41.45" font-family="Arial" font-size="9.00">New College Manchester</text>
<text xml:space="preserve" text-anchor="middle" x="1684.88" y="-30.95" font-family="Arial" font-size="9.00">QUAKER Academy</text>
</g>
<!-- John Dalton\n(1766&#45;1844)\nQUAKER Chemist &amp; Physicist&#45;&gt;New College Manchester\nQUAKER Academy -->
<g id="edge23" class="edge">
<title>John Dalton\n(1766&#45;1844)\nQUAKER Chemist &amp; Physicist&#45;&gt;New College Manchester\nQUAKER Academy</title>
<path fill="none" stroke="black" d="M1036.76,-141.94C1153.1,-134.42 1372.48,-116.35 1555.88,-79 1578.6,-74.37 1603.08,-67.55 1624.55,-60.93"/>
<polygon fill="black" stroke="black" points="1625.54,-64.29 1634.03,-57.95 1623.44,-57.61 1625.54,-64.29"/>
<text xml:space="preserve" text-anchor="middle" x="1453.64" y="-98.6" font-family="Arial" font-size="7.00">teacher</text>
</g>
<!-- Manchester Academy\nQUAKER School -->
<g id="node20" class="node">
<title>Manchester Academy\nQUAKER School</title>
<polygon fill="lightgray" stroke="black" stroke-width="2" points="1926.88,-68.5 1822.38,-39.5 1926.88,-10.5 2031.38,-39.5 1926.88,-68.5"/>
<text xml:space="preserve" text-anchor="middle" x="1926.88" y="-41.45" font-family="Arial" font-size="9.00">Manchester Academy</text>
<text xml:space="preserve" text-anchor="middle" x="1926.88" y="-30.95" font-family="Arial" font-size="9.00">QUAKER School</text>
</g>
<!-- John Dalton\n(1766&#45;1844)\nQUAKER Chemist &amp; Physicist&#45;&gt;Manchester Academy\nQUAKER School -->
<g id="edge24" class="edge">
<title>John Dalton\n(1766&#45;1844)\nQUAKER Chemist &amp; Physicist&#45;&gt;Manchester Academy\nQUAKER School</title>
<path fill="none" stroke="black" d="M1036.95,-146.83C1190.93,-145.95 1532.95,-136.94 1813.88,-79 1833.9,-74.87 1855.27,-68.21 1873.97,-61.58"/>
<polygon fill="black" stroke="black" points="1875.02,-64.92 1883.23,-58.21 1872.63,-58.34 1875.02,-64.92"/>
<text xml:space="preserve" text-anchor="middle" x="1710.31" y="-98.6" font-family="Arial" font-size="7.00">student</text>
</g>
<!-- Askesian Society\nQUAKER Scientific Group -->
<g id="node21" class="node">
<title>Askesian Society\nQUAKER Scientific Group</title>
<polygon fill="lightgray" stroke="black" stroke-width="2" points="2170.88,-68.5 2049.88,-39.5 2170.88,-10.5 2291.88,-39.5 2170.88,-68.5"/>
<text xml:space="preserve" text-anchor="middle" x="2170.88" y="-41.45" font-family="Arial" font-size="9.00">Askesian Society</text>
<text xml:space="preserve" text-anchor="middle" x="2170.88" y="-30.95" font-family="Arial" font-size="9.00">QUAKER Scientific Group</text>
</g>
<!-- John Dalton\n(1766&#45;1844)\nQUAKER Chemist &amp; Physicist&#45;&gt;Askesian Society\nQUAKER Scientific Group -->
<g id="edge25" class="edge">
<title>John Dalton\n(1766&#45;1844)\nQUAKER Chemist &amp; Physicist&#45;&gt;Askesian Society\nQUAKER Scientific Group</title>
<path fill="none" stroke="black" d="M1037.09,-144.02C1255.83,-136.99 1848.48,-115.11 2040.88,-79 2064.13,-74.64 2089.16,-67.76 2111,-61.02"/>
<polygon fill="black" stroke="black" points="2111.83,-64.43 2120.32,-58.09 2109.73,-57.75 2111.83,-64.43"/>
<text xml:space="preserve" text-anchor="middle" x="1898.63" y="-98.6" font-family="Arial" font-size="7.00">member</text>
</g>
<!-- Atomic Theory\n(1808) -->
<g id="node22" class="node">
<title>Atomic Theory\n(1808)</title>
<polygon fill="orange" stroke="black" stroke-width="2" points="2384.88,-68.5 2310.38,-39.5 2384.88,-10.5 2459.38,-39.5 2384.88,-68.5"/>
<text xml:space="preserve" text-anchor="middle" x="2384.88" y="-41.45" font-family="Arial" font-size="9.00">Atomic Theory</text>
<text xml:space="preserve" text-anchor="middle" x="2384.88" y="-30.95" font-family="Arial" font-size="9.00">(1808)</text>
</g>
<!-- John Dalton\n(1766&#45;1844)\nQUAKER Chemist &amp; Physicist&#45;&gt;Atomic Theory\n(1808) -->
<g id="edge26" class="edge">
<title>John Dalton\n(1766&#45;1844)\nQUAKER Chemist &amp; Physicist&#45;&gt;Atomic Theory\n(1808)</title>
<path fill="none" stroke="black" d="M1036.86,-143.68C1202.84,-137.81 1590.53,-123.32 1915.88,-105.25 2087.12,-95.74 2134.65,-121.25 2300.88,-79 2315.74,-75.22 2331.22,-68.89 2344.78,-62.45"/>
<polygon fill="black" stroke="black" points="2345.96,-65.77 2353.38,-58.21 2342.87,-59.49 2345.96,-65.77"/>
<text xml:space="preserve" text-anchor="middle" x="2229.2" y="-98.6" font-family="Arial" font-size="7.00">developed</text>
</g>
<!-- Dalton&#39;s Law\nof Partial Pressures -->
<g id="node23" class="node">
<title>Dalton&#39;s Law\nof Partial Pressures</title>
<polygon fill="orange" stroke="black" stroke-width="2" points="2572.88,-68.5 2477.38,-39.5 2572.88,-10.5 2668.38,-39.5 2572.88,-68.5"/>
<text xml:space="preserve" text-anchor="middle" x="2572.88" y="-41.45" font-family="Arial" font-size="9.00">Dalton&#39;s Law</text>
<text xml:space="preserve" text-anchor="middle" x="2572.88" y="-30.95" font-family="Arial" font-size="9.00">of Partial Pressures</text>
</g>
<!-- John Dalton\n(1766&#45;1844)\nQUAKER Chemist &amp; Physicist&#45;&gt;Dalton&#39;s Law\nof Partial Pressures -->
<g id="edge27" class="edge">
<title>John Dalton\n(1766&#45;1844)\nQUAKER Chemist &amp; Physicist&#45;&gt;Dalton&#39;s Law\nof Partial Pressures</title>
<path fill="none" stroke="black" d="M1036.76,-146.36C1241.42,-145.46 1791.65,-139.75 2248.88,-105.25 2347.07,-97.84 2373.15,-102.09 2468.88,-79 2487.01,-74.63 2506.31,-68.05 2523.31,-61.56"/>
<polygon fill="black" stroke="black" points="2524.11,-65.01 2532.15,-58.11 2521.56,-58.49 2524.11,-65.01"/>
<text xml:space="preserve" text-anchor="middle" x="2383.69" y="-98.6" font-family="Arial" font-size="7.00">formulated</text>
</g>
<!-- Color Blindness\nResearch (1794) -->
<g id="node24" class="node">
<title>Color Blindness\nResearch (1794)</title>
<polygon fill="orange" stroke="black" stroke-width="2" points="2771.88,-68.5 2686.88,-39.5 2771.88,-10.5 2856.88,-39.5 2771.88,-68.5"/>
<text xml:space="preserve" text-anchor="middle" x="2771.88" y="-41.45" font-family="Arial" font-size="9.00">Color Blindness</text>
<text xml:space="preserve" text-anchor="middle" x="2771.88" y="-30.95" font-family="Arial" font-size="9.00">Research (1794)</text>
</g>
<!-- John Dalton\n(1766&#45;1844)\nQUAKER Chemist &amp; Physicist&#45;&gt;Color Blindness\nResearch (1794) -->
<g id="edge28" class="edge">
<title>John Dalton\n(1766&#45;1844)\nQUAKER Chemist &amp; Physicist&#45;&gt;Color Blindness\nResearch (1794)</title>
<path fill="none" stroke="black" d="M1037.06,-146.09C1258.2,-144.57 1884.24,-137.5 2403.88,-105.25 2525.98,-97.67 2559.11,-108.33 2677.88,-79 2694.29,-74.95 2711.59,-68.53 2726.82,-62.09"/>
<polygon fill="black" stroke="black" points="2727.84,-65.46 2735.6,-58.26 2725.04,-59.05 2727.84,-65.46"/>
<text xml:space="preserve" text-anchor="middle" x="2595.69" y="-98.6" font-family="Arial" font-size="7.00">conducted</text>
</g>
<!-- Meteorological\nObservations -->
<g id="node25" class="node">
<title>Meteorological\nObservations</title>
<polygon fill="orange" stroke="black" stroke-width="2" points="2951.88,-68.5 2875.12,-39.5 2951.88,-10.5 3028.62,-39.5 2951.88,-68.5"/>
<text xml:space="preserve" text-anchor="middle" x="2951.88" y="-41.45" font-family="Arial" font-size="9.00">Meteorological</text>
<text xml:space="preserve" text-anchor="middle" x="2951.88" y="-30.95" font-family="Arial" font-size="9.00">Observations</text>
</g>
<!-- John Dalton\n(1766&#45;1844)\nQUAKER Chemist &amp; Physicist&#45;&gt;Meteorological\nObservations -->
<g id="edge29" class="edge">
<title>John Dalton\n(1766&#45;1844)\nQUAKER Chemist &amp; Physicist&#45;&gt;Meteorological\nObservations</title>
<path fill="none" stroke="black" d="M1037.07,-146.78C1279.19,-147.09 2010.66,-144.48 2615.88,-105.25 2727.36,-98.02 2757.99,-108.02 2865.88,-79 2880.85,-74.97 2896.54,-68.64 2910.35,-62.27"/>
<polygon fill="black" stroke="black" points="2911.61,-65.55 2919.13,-58.08 2908.6,-59.23 2911.61,-65.55"/>
<text xml:space="preserve" text-anchor="middle" x="2793.28" y="-98.6" font-family="Arial" font-size="7.00">maintained</text>
</g>
<!-- A New System of\nChemical Philosophy -->
<g id="node26" class="node">
<title>A New System of\nChemical Philosophy</title>
<polygon fill="orange" stroke="black" stroke-width="2" points="3149.88,-68.5 3046.88,-39.5 3149.88,-10.5 3252.88,-39.5 3149.88,-68.5"/>
<text xml:space="preserve" text-anchor="middle" x="3149.88" y="-41.45" font-family="Arial" font-size="9.00">A New System of</text>
<text xml:space="preserve" text-anchor="middle" x="3149.88" y="-30.95" font-family="Arial" font-size="9.00">Chemical Philosophy</text>
</g>
<!-- John Dalton\n(1766&#45;1844)\nQUAKER Chemist &amp; Physicist&#45;&gt;A New System of\nChemical Philosophy -->
<g id="edge30" class="edge">
<title>John Dalton\n(1766&#45;1844)\nQUAKER Chemist &amp; Physicist&#45;&gt;A New System of\nChemical Philosophy</title>
<path fill="none" stroke="black" d="M1036.98,-145.71C1348.94,-142.55 2460.83,-129.8 2813.88,-105.25 2913.87,-98.3 2940.14,-101.25 3037.88,-79 3057.39,-74.56 3078.26,-67.92 3096.63,-61.41"/>
<polygon fill="black" stroke="black" points="3097.79,-64.72 3106,-58.02 3095.4,-58.13 3097.79,-64.72"/>
<text xml:space="preserve" text-anchor="middle" x="2947.73" y="-98.6" font-family="Arial" font-size="7.00">authored</text>
</g>
<!-- Meteorological\nObservations and Essays -->
<g id="node27" class="node">
<title>Meteorological\nObservations and Essays</title>
<polygon fill="orange" stroke="black" stroke-width="2" points="3390.88,-68.5 3271.38,-39.5 3390.88,-10.5 3510.38,-39.5 3390.88,-68.5"/>
<text xml:space="preserve" text-anchor="middle" x="3390.88" y="-41.45" font-family="Arial" font-size="9.00">Meteorological</text>
<text xml:space="preserve" text-anchor="middle" x="3390.88" y="-30.95" font-family="Arial" font-size="9.00">Observations and Essays</text>
</g>
<!-- John Dalton\n(1766&#45;1844)\nQUAKER Chemist &amp; Physicist&#45;&gt;Meteorological\nObservations and Essays -->
<g id="edge31" class="edge">
<title>John Dalton\n(1766&#45;1844)\nQUAKER Chemist &amp; Physicist&#45;&gt;Meteorological\nObservations and Essays</title>
<path fill="none" stroke="black" d="M1036.8,-146.8C1310.3,-147.39 2216.87,-145.93 2964.88,-105.25 3097.19,-98.05 3131.72,-103.91 3261.88,-79 3284.95,-74.58 3309.79,-67.7 3331.46,-60.97"/>
<polygon fill="black" stroke="black" points="3332.22,-64.4 3340.7,-58.04 3330.11,-57.72 3332.22,-64.4"/>
<text xml:space="preserve" text-anchor="middle" x="3147.66" y="-98.6" font-family="Arial" font-size="7.00">authored</text>
</g>
<!-- Joseph Dalton\n(1727&#45;1794)\nQUAKER Father -->
<g id="node2" class="node">
<title>Joseph Dalton\n(1727&#45;1794)\nQUAKER Father</title>
<polygon fill="lightpink" stroke="black" stroke-width="2" points="785.25,-264.75 702.5,-264.75 702.5,-225.25 785.25,-225.25 785.25,-264.75"/>
<text xml:space="preserve" text-anchor="middle" x="743.88" y="-252.2" font-family="Arial" font-size="9.00">Joseph Dalton</text>
<text xml:space="preserve" text-anchor="middle" x="743.88" y="-241.7" font-family="Arial" font-size="9.00">(1727&#45;1794)</text>
<text xml:space="preserve" text-anchor="middle" x="743.88" y="-231.2" font-family="Arial" font-size="9.00">QUAKER Father</text>
</g>
<!-- Joseph Dalton\n(1727&#45;1794)\nQUAKER Father&#45;&gt;John Dalton\n(1766&#45;1844)\nQUAKER Chemist &amp; Physicist -->
<g id="edge1" class="edge">
<title>Joseph Dalton\n(1727&#45;1794)\nQUAKER Father&#45;&gt;John Dalton\n(1766&#45;1844)\nQUAKER Chemist &amp; Physicist</title>
<path fill="none" stroke="black" d="M768.99,-224.33C776.99,-218.61 786.06,-212.65 794.88,-208 817.04,-196.31 842.02,-185.85 865.53,-177.09"/>
<polygon fill="black" stroke="black" points="866.6,-180.42 874.79,-173.7 864.2,-173.85 866.6,-180.42"/>
<text xml:space="preserve" text-anchor="middle" x="841.93" y="-191.35" font-family="Arial" font-size="7.00">father</text>
</g>
<!-- Deborah Greenup\n(1727&#45;1778)\nQUAKER Mother -->
<g id="node3" class="node">
<title>Deborah Greenup\n(1727&#45;1778)\nQUAKER Mother</title>
<polygon fill="lightpink" stroke="black" stroke-width="2" points="894,-264.75 803.75,-264.75 803.75,-225.25 894,-225.25 894,-264.75"/>
<text xml:space="preserve" text-anchor="middle" x="848.88" y="-252.2" font-family="Arial" font-size="9.00">Deborah Greenup</text>
<text xml:space="preserve" text-anchor="middle" x="848.88" y="-241.7" font-family="Arial" font-size="9.00">(1727&#45;1778)</text>
<text xml:space="preserve" text-anchor="middle" x="848.88" y="-231.2" font-family="Arial" font-size="9.00">QUAKER Mother</text>
</g>
<!-- Deborah Greenup\n(1727&#45;1778)\nQUAKER Mother&#45;&gt;John Dalton\n(1766&#45;1844)\nQUAKER Chemist &amp; Physicist -->
<g id="edge2" class="edge">
<title>Deborah Greenup\n(1727&#45;1778)\nQUAKER Mother&#45;&gt;John Dalton\n(1766&#45;1844)\nQUAKER Chemist &amp; Physicist</title>
<path fill="none" stroke="black" d="M870.58,-224.44C884.61,-211.8 903.2,-195.06 919.35,-180.51"/>
<polygon fill="black" stroke="black" points="921.32,-183.44 926.41,-174.15 916.64,-178.24 921.32,-183.44"/>
<text xml:space="preserve" text-anchor="middle" x="919.1" y="-191.35" font-family="Arial" font-size="7.00">mother</text>
</g>
<!-- Elihu Robinson\n(1734&#45;1809)\nQUAKER Mentor -->
<g id="node6" class="node">
<title>Elihu Robinson\n(1734&#45;1809)\nQUAKER Mentor</title>
<polygon fill="lightcyan" stroke="black" stroke-width="2" points="997.38,-264.75 912.38,-264.75 912.38,-225.25 997.38,-225.25 997.38,-264.75"/>
<text xml:space="preserve" text-anchor="middle" x="954.88" y="-252.2" font-family="Arial" font-size="9.00">Elihu Robinson</text>
<text xml:space="preserve" text-anchor="middle" x="954.88" y="-241.7" font-family="Arial" font-size="9.00">(1734&#45;1809)</text>
<text xml:space="preserve" text-anchor="middle" x="954.88" y="-231.2" font-family="Arial" font-size="9.00">QUAKER Mentor</text>
</g>
<!-- Elihu Robinson\n(1734&#45;1809)\nQUAKER Mentor&#45;&gt;John Dalton\n(1766&#45;1844)\nQUAKER Chemist &amp; Physicist -->
<g id="edge5" class="edge">
<title>Elihu Robinson\n(1734&#45;1809)\nQUAKER Mentor&#45;&gt;John Dalton\n(1766&#45;1844)\nQUAKER Chemist &amp; Physicist</title>
<path fill="none" stroke="black" d="M954.88,-224.67C954.88,-213.21 954.88,-198.3 954.88,-184.72"/>
<polygon fill="black" stroke="black" points="958.38,-184.76 954.88,-174.76 951.38,-184.76 958.38,-184.76"/>
<text xml:space="preserve" text-anchor="middle" x="965.75" y="-191.35" font-family="Arial" font-size="7.00">mentor</text>
</g>
<!-- John Gough\n(1757&#45;1825)\nQUAKER Mentor -->
<g id="node7" class="node">
<title>John Gough\n(1757&#45;1825)\nQUAKER Mentor</title>
<polygon fill="lightcyan" stroke="black" stroke-width="2" points="1100.38,-264.75 1015.38,-264.75 1015.38,-225.25 1100.38,-225.25 1100.38,-264.75"/>
<text xml:space="preserve" text-anchor="middle" x="1057.88" y="-252.2" font-family="Arial" font-size="9.00">John Gough</text>
<text xml:space="preserve" text-anchor="middle" x="1057.88" y="-241.7" font-family="Arial" font-size="9.00">(1757&#45;1825)</text>
<text xml:space="preserve" text-anchor="middle" x="1057.88" y="-231.2" font-family="Arial" font-size="9.00">QUAKER Mentor</text>
</g>
<!-- John Gough\n(1757&#45;1825)\nQUAKER Mentor&#45;&gt;John Dalton\n(1766&#45;1844)\nQUAKER Chemist &amp; Physicist -->
<g id="edge6" class="edge">
<title>John Gough\n(1757&#45;1825)\nQUAKER Mentor&#45;&gt;John Dalton\n(1766&#45;1844)\nQUAKER Chemist &amp; Physicist</title>
<path fill="none" stroke="black" d="M1037.03,-224.67C1023.54,-212.17 1005.64,-195.57 989.99,-181.06"/>
<polygon fill="black" stroke="black" points="992.39,-178.51 982.68,-174.28 987.63,-183.64 992.39,-178.51"/>
<text xml:space="preserve" text-anchor="middle" x="1017.25" y="-191.35" font-family="Arial" font-size="7.00">mentor</text>
</g>
<!-- George Bewley\n(1750&#45;1828)\nQUAKER Mentor -->
<g id="node8" class="node">
<title>George Bewley\n(1750&#45;1828)\nQUAKER Mentor</title>
<polygon fill="lightcyan" stroke="black" stroke-width="2" points="1203.38,-264.75 1118.38,-264.75 1118.38,-225.25 1203.38,-225.25 1203.38,-264.75"/>
<text xml:space="preserve" text-anchor="middle" x="1160.88" y="-252.2" font-family="Arial" font-size="9.00">George Bewley</text>
<text xml:space="preserve" text-anchor="middle" x="1160.88" y="-241.7" font-family="Arial" font-size="9.00">(1750&#45;1828)</text>
<text xml:space="preserve" text-anchor="middle" x="1160.88" y="-231.2" font-family="Arial" font-size="9.00">QUAKER Mentor</text>
</g>
<!-- George Bewley\n(1750&#45;1828)\nQUAKER Mentor&#45;&gt;John Dalton\n(1766&#45;1844)\nQUAKER Chemist &amp; Physicist -->
<g id="edge7" class="edge">
<title>George Bewley\n(1750&#45;1828)\nQUAKER Mentor&#45;&gt;John Dalton\n(1766&#45;1844)\nQUAKER Chemist &amp; Physicist</title>
<path fill="none" stroke="black" d="M1135.73,-224.39C1127.73,-218.67 1118.67,-212.7 1109.88,-208 1088.26,-196.45 1063.9,-186.01 1041,-177.22"/>
<polygon fill="black" stroke="black" points="1042.26,-173.95 1031.67,-173.7 1039.79,-180.5 1042.26,-173.95"/>
<text xml:space="preserve" text-anchor="middle" x="1100.59" y="-191.35" font-family="Arial" font-size="7.00">mentor</text>
</g>
<!-- Joseph Priestley\n(1733&#45;1804)\nDissenter Chemist&#45;&gt;John Dalton\n(1766&#45;1844)\nQUAKER Chemist &amp; Physicist -->
<g id="edge8" class="edge">
<title>Joseph Priestley\n(1733&#45;1804)\nDissenter Chemist&#45;&gt;John Dalton\n(1766&#45;1844)\nQUAKER Chemist &amp; Physicist</title>
<path fill="none" stroke="black" d="M840.3,-59.73C851.84,-73.39 868.47,-91.65 885.38,-105.25 889.84,-108.84 894.65,-112.34 899.57,-115.67"/>
<polygon fill="black" stroke="black" points="897.58,-118.55 907.87,-121.06 901.39,-112.68 897.58,-118.55"/>
<text xml:space="preserve" text-anchor="middle" x="901.12" y="-98.6" font-family="Arial" font-size="7.00">influenced</text>
</g>
<!-- Humphry Davy\n(1778&#45;1829)\nAnglican Chemist&#45;&gt;John Dalton\n(1766&#45;1844)\nQUAKER Chemist &amp; Physicist -->
<g id="edge9" class="edge">
<title>Humphry Davy\n(1778&#45;1829)\nAnglican Chemist&#45;&gt;John Dalton\n(1766&#45;1844)\nQUAKER Chemist &amp; Physicist</title>
<path fill="none" stroke="black" d="M946.08,-59.67C952.52,-70.18 959.57,-83.74 962.88,-97 963.97,-101.39 964.29,-106.03 964.1,-110.65"/>
<polygon fill="black" stroke="black" points="960.65,-110.07 962.94,-120.41 967.6,-110.9 960.65,-110.07"/>
<text xml:space="preserve" text-anchor="middle" x="979.81" y="-98.6" font-family="Arial" font-size="7.00">influenced</text>
</g>
<!-- QUAKER Family\n(Thick Border) -->
<g id="node28" class="node">
<title>QUAKER Family\n(Thick Border)</title>
<polygon fill="lightpink" stroke="black" stroke-width="3" points="1304.62,-263 1221.12,-263 1221.12,-227 1304.62,-227 1304.62,-263"/>
<text xml:space="preserve" text-anchor="middle" x="1262.88" y="-246.95" font-family="Arial" font-size="9.00">QUAKER Family</text>
<text xml:space="preserve" text-anchor="middle" x="1262.88" y="-236.45" font-family="Arial" font-size="9.00">(Thick Border)</text>
</g>
<!-- QUAKER Mentors\n(Thick Border) -->
<g id="node29" class="node">
<title>QUAKER Mentors\n(Thick Border)</title>
<polygon fill="lightcyan" stroke="black" stroke-width="3" points="1412.62,-263 1323.12,-263 1323.12,-227 1412.62,-227 1412.62,-263"/>
<text xml:space="preserve" text-anchor="middle" x="1367.88" y="-246.95" font-family="Arial" font-size="9.00">QUAKER Mentors</text>
<text xml:space="preserve" text-anchor="middle" x="1367.88" y="-236.45" font-family="Arial" font-size="9.00">(Thick Border)</text>
</g>
<!-- QUAKER Scientists\n(Thick Border) -->
<g id="node30" class="node">
<title>QUAKER Scientists\n(Thick Border)</title>
<polygon fill="lightsteelblue" stroke="black" stroke-width="3" points="1526.62,-263 1431.12,-263 1431.12,-227 1526.62,-227 1526.62,-263"/>
<text xml:space="preserve" text-anchor="middle" x="1478.88" y="-246.95" font-family="Arial" font-size="9.00">QUAKER Scientists</text>
<text xml:space="preserve" text-anchor="middle" x="1478.88" y="-236.45" font-family="Arial" font-size="9.00">(Thick Border)</text>
</g>
<!-- QUAKER Organizations\n(Thick Border) -->
<g id="node31" class="node">
<title>QUAKER Organizations\n(Thick Border)</title>
<polygon fill="lightgray" stroke="black" stroke-width="3" points="1657.88,-274 1544.38,-245 1657.88,-216 1771.38,-245 1657.88,-274"/>
<text xml:space="preserve" text-anchor="middle" x="1657.88" y="-246.95" font-family="Arial" font-size="9.00">QUAKER Organizations</text>
<text xml:space="preserve" text-anchor="middle" x="1657.88" y="-236.45" font-family="Arial" font-size="9.00">(Thick Border)</text>
</g>
<!-- QUAKER Contributions\n(Thick Border) -->
<g id="node32" class="node">
<title>QUAKER Contributions\n(Thick Border)</title>
<polygon fill="orange" stroke="black" stroke-width="3" points="1900.88,-274 1789.62,-245 1900.88,-216 2012.12,-245 1900.88,-274"/>
<text xml:space="preserve" text-anchor="middle" x="1900.88" y="-246.95" font-family="Arial" font-size="9.00">QUAKER Contributions</text>
<text xml:space="preserve" text-anchor="middle" x="1900.88" y="-236.45" font-family="Arial" font-size="9.00">(Thick Border)</text>
</g>
<!-- Non&#45;Quaker Scientists\n(Thin Border) -->
<g id="node33" class="node">
<title>Non&#45;Quaker Scientists\n(Thin Border)</title>
<polygon fill="lightcoral" stroke="black" points="2137.62,-263 2030.12,-263 2030.12,-227 2137.62,-227 2137.62,-263"/>
<text xml:space="preserve" text-anchor="middle" x="2083.88" y="-246.95" font-family="Arial" font-size="9.00">Non&#45;Quaker Scientists</text>
<text xml:space="preserve" text-anchor="middle" x="2083.88" y="-236.45" font-family="Arial" font-size="9.00">(Thin Border)</text>
</g>
<!-- Anglican Organizations\n(Thin Border) -->
<g id="node34" class="node">
<title>Anglican Organizations\n(Thin Border)</title>
<polygon fill="lightgray" stroke="black" points="2266.88,-274 2155.62,-245 2266.88,-216 2378.12,-245 2266.88,-274"/>
<text xml:space="preserve" text-anchor="middle" x="2266.88" y="-246.95" font-family="Arial" font-size="9.00">Anglican Organizations</text>
<text xml:space="preserve" text-anchor="middle" x="2266.88" y="-236.45" font-family="Arial" font-size="9.00">(Thin Border)</text>
</g>
<!-- John Dalton\nCentral Figure -->
<g id="node35" class="node">
<title>John Dalton\nCentral Figure</title>
<polygon fill="gold" stroke="black" stroke-width="3" points="2471.12,-263 2396.62,-263 2396.62,-227 2471.12,-227 2471.12,-263"/>
<text xml:space="preserve" text-anchor="middle" x="2433.88" y="-246.95" font-family="Arial" font-size="9.00">John Dalton</text>
<text xml:space="preserve" text-anchor="middle" x="2433.88" y="-236.45" font-family="Arial" font-size="9.00">Central Figure</text>
</g>
</g>
</svg>
